<?xml version="1.0" encoding="UTF-8"?><svg xmlns="http://www.w3.org/2000/svg" xmlns:xlink="http://www.w3.org/1999/xlink" fill-opacity="1" color-rendering="auto" color-interpolation="auto" text-rendering="auto" stroke="black" stroke-linecap="square" width="960" stroke-miterlimit="10" shape-rendering="auto" stroke-opacity="1" fill="black" stroke-dasharray="none" font-weight="normal" stroke-width="1" height="918" font-family="'Dialog'" font-style="normal" stroke-linejoin="miter" font-size="12px" stroke-dashoffset="0" image-rendering="auto">
  <!--Generated by ySVG 2.6-->
  <defs id="genericDefs"/>
  <g>
    <defs id="defs1">
      <clipPath clipPathUnits="userSpaceOnUse" id="clipPath1">
        <path d="M0 0 L960 0 L960 918 L0 918 L0 0 Z"/>
      </clipPath>
      <clipPath clipPathUnits="userSpaceOnUse" id="clipPath2">
        <path d="M543 207 L863 207 L863 513 L543 513 L543 207 Z"/>
      </clipPath>
      <clipPath clipPathUnits="userSpaceOnUse" id="clipPath3">
        <path d="M627 291 L627 429 L779 429 L779 291 Z"/>
      </clipPath>
    </defs>
    <g fill="white" text-rendering="geometricPrecision" shape-rendering="geometricPrecision" transform="scale(3,3) translate(-543,-207)" stroke="white">
      <rect x="543" width="320" height="306" y="207" clip-path="url(#clipPath2)" stroke="none"/>
    </g>
    <g fill="gray" text-rendering="geometricPrecision" shape-rendering="geometricPrecision" stroke="gray">
      <line y2="-170" fill="none" x1="-99" clip-path="url(#clipPath1)" x2="-99" y1="-172"/>
      <line y2="-171" fill="none" x1="-100" clip-path="url(#clipPath1)" x2="-98" y1="-171"/>
      <line y2="-80" fill="none" x1="-99" clip-path="url(#clipPath1)" x2="-99" y1="-82"/>
      <line y2="-81" fill="none" x1="-100" clip-path="url(#clipPath1)" x2="-98" y1="-81"/>
      <line y2="10" fill="none" x1="-99" clip-path="url(#clipPath1)" x2="-99" y1="8"/>
      <line y2="9" fill="none" x1="-100" clip-path="url(#clipPath1)" x2="-98" y1="9"/>
      <line y2="100" fill="none" x1="-99" clip-path="url(#clipPath1)" x2="-99" y1="98"/>
      <line y2="99" fill="none" x1="-100" clip-path="url(#clipPath1)" x2="-98" y1="99"/>
      <line y2="190" fill="none" x1="-99" clip-path="url(#clipPath1)" x2="-99" y1="188"/>
      <line y2="189" fill="none" x1="-100" clip-path="url(#clipPath1)" x2="-98" y1="189"/>
      <line y2="280" fill="none" x1="-99" clip-path="url(#clipPath1)" x2="-99" y1="278"/>
      <line y2="279" fill="none" x1="-100" clip-path="url(#clipPath1)" x2="-98" y1="279"/>
      <line y2="370" fill="none" x1="-99" clip-path="url(#clipPath1)" x2="-99" y1="368"/>
      <line y2="369" fill="none" x1="-100" clip-path="url(#clipPath1)" x2="-98" y1="369"/>
      <line y2="460" fill="none" x1="-99" clip-path="url(#clipPath1)" x2="-99" y1="458"/>
      <line y2="459" fill="none" x1="-100" clip-path="url(#clipPath1)" x2="-98" y1="459"/>
      <line y2="550" fill="none" x1="-99" clip-path="url(#clipPath1)" x2="-99" y1="548"/>
      <line y2="549" fill="none" x1="-100" clip-path="url(#clipPath1)" x2="-98" y1="549"/>
      <line y2="640" fill="none" x1="-99" clip-path="url(#clipPath1)" x2="-99" y1="638"/>
      <line y2="639" fill="none" x1="-100" clip-path="url(#clipPath1)" x2="-98" y1="639"/>
      <line y2="730" fill="none" x1="-99" clip-path="url(#clipPath1)" x2="-99" y1="728"/>
      <line y2="729" fill="none" x1="-100" clip-path="url(#clipPath1)" x2="-98" y1="729"/>
      <line y2="820" fill="none" x1="-99" clip-path="url(#clipPath1)" x2="-99" y1="818"/>
      <line y2="819" fill="none" x1="-100" clip-path="url(#clipPath1)" x2="-98" y1="819"/>
      <line y2="910" fill="none" x1="-99" clip-path="url(#clipPath1)" x2="-99" y1="908"/>
      <line y2="909" fill="none" x1="-100" clip-path="url(#clipPath1)" x2="-98" y1="909"/>
      <line y2="1000" fill="none" x1="-99" clip-path="url(#clipPath1)" x2="-99" y1="998"/>
      <line y2="999" fill="none" x1="-100" clip-path="url(#clipPath1)" x2="-98" y1="999"/>
      <line y2="-170" fill="none" x1="-9" clip-path="url(#clipPath1)" x2="-9" y1="-172"/>
      <line y2="-171" fill="none" x1="-10" clip-path="url(#clipPath1)" x2="-8" y1="-171"/>
      <line y2="-80" fill="none" x1="-9" clip-path="url(#clipPath1)" x2="-9" y1="-82"/>
      <line y2="-81" fill="none" x1="-10" clip-path="url(#clipPath1)" x2="-8" y1="-81"/>
      <line y2="10" fill="none" x1="-9" clip-path="url(#clipPath1)" x2="-9" y1="8"/>
      <line y2="9" fill="none" x1="-10" clip-path="url(#clipPath1)" x2="-8" y1="9"/>
      <line y2="100" fill="none" x1="-9" clip-path="url(#clipPath1)" x2="-9" y1="98"/>
      <line y2="99" fill="none" x1="-10" clip-path="url(#clipPath1)" x2="-8" y1="99"/>
      <line y2="190" fill="none" x1="-9" clip-path="url(#clipPath1)" x2="-9" y1="188"/>
      <line y2="189" fill="none" x1="-10" clip-path="url(#clipPath1)" x2="-8" y1="189"/>
      <line y2="280" fill="none" x1="-9" clip-path="url(#clipPath1)" x2="-9" y1="278"/>
      <line y2="279" fill="none" x1="-10" clip-path="url(#clipPath1)" x2="-8" y1="279"/>
      <line y2="370" fill="none" x1="-9" clip-path="url(#clipPath1)" x2="-9" y1="368"/>
      <line y2="369" fill="none" x1="-10" clip-path="url(#clipPath1)" x2="-8" y1="369"/>
      <line y2="460" fill="none" x1="-9" clip-path="url(#clipPath1)" x2="-9" y1="458"/>
      <line y2="459" fill="none" x1="-10" clip-path="url(#clipPath1)" x2="-8" y1="459"/>
      <line y2="550" fill="none" x1="-9" clip-path="url(#clipPath1)" x2="-9" y1="548"/>
      <line y2="549" fill="none" x1="-10" clip-path="url(#clipPath1)" x2="-8" y1="549"/>
      <line y2="640" fill="none" x1="-9" clip-path="url(#clipPath1)" x2="-9" y1="638"/>
      <line y2="639" fill="none" x1="-10" clip-path="url(#clipPath1)" x2="-8" y1="639"/>
      <line y2="730" fill="none" x1="-9" clip-path="url(#clipPath1)" x2="-9" y1="728"/>
      <line y2="729" fill="none" x1="-10" clip-path="url(#clipPath1)" x2="-8" y1="729"/>
      <line y2="820" fill="none" x1="-9" clip-path="url(#clipPath1)" x2="-9" y1="818"/>
      <line y2="819" fill="none" x1="-10" clip-path="url(#clipPath1)" x2="-8" y1="819"/>
      <line y2="910" fill="none" x1="-9" clip-path="url(#clipPath1)" x2="-9" y1="908"/>
      <line y2="909" fill="none" x1="-10" clip-path="url(#clipPath1)" x2="-8" y1="909"/>
      <line y2="1000" fill="none" x1="-9" clip-path="url(#clipPath1)" x2="-9" y1="998"/>
      <line y2="999" fill="none" x1="-10" clip-path="url(#clipPath1)" x2="-8" y1="999"/>
      <line y2="-170" fill="none" x1="81" clip-path="url(#clipPath1)" x2="81" y1="-172"/>
      <line y2="-171" fill="none" x1="80" clip-path="url(#clipPath1)" x2="82" y1="-171"/>
      <line y2="-80" fill="none" x1="81" clip-path="url(#clipPath1)" x2="81" y1="-82"/>
      <line y2="-81" fill="none" x1="80" clip-path="url(#clipPath1)" x2="82" y1="-81"/>
      <line y2="10" fill="none" x1="81" clip-path="url(#clipPath1)" x2="81" y1="8"/>
      <line y2="9" fill="none" x1="80" clip-path="url(#clipPath1)" x2="82" y1="9"/>
      <line y2="100" fill="none" x1="81" clip-path="url(#clipPath1)" x2="81" y1="98"/>
      <line y2="99" fill="none" x1="80" clip-path="url(#clipPath1)" x2="82" y1="99"/>
      <line y2="190" fill="none" x1="81" clip-path="url(#clipPath1)" x2="81" y1="188"/>
      <line y2="189" fill="none" x1="80" clip-path="url(#clipPath1)" x2="82" y1="189"/>
      <line y2="280" fill="none" x1="81" clip-path="url(#clipPath1)" x2="81" y1="278"/>
      <line y2="279" fill="none" x1="80" clip-path="url(#clipPath1)" x2="82" y1="279"/>
      <line y2="370" fill="none" x1="81" clip-path="url(#clipPath1)" x2="81" y1="368"/>
      <line y2="369" fill="none" x1="80" clip-path="url(#clipPath1)" x2="82" y1="369"/>
      <line y2="460" fill="none" x1="81" clip-path="url(#clipPath1)" x2="81" y1="458"/>
      <line y2="459" fill="none" x1="80" clip-path="url(#clipPath1)" x2="82" y1="459"/>
      <line y2="550" fill="none" x1="81" clip-path="url(#clipPath1)" x2="81" y1="548"/>
      <line y2="549" fill="none" x1="80" clip-path="url(#clipPath1)" x2="82" y1="549"/>
      <line y2="640" fill="none" x1="81" clip-path="url(#clipPath1)" x2="81" y1="638"/>
      <line y2="639" fill="none" x1="80" clip-path="url(#clipPath1)" x2="82" y1="639"/>
      <line y2="730" fill="none" x1="81" clip-path="url(#clipPath1)" x2="81" y1="728"/>
      <line y2="729" fill="none" x1="80" clip-path="url(#clipPath1)" x2="82" y1="729"/>
      <line y2="820" fill="none" x1="81" clip-path="url(#clipPath1)" x2="81" y1="818"/>
      <line y2="819" fill="none" x1="80" clip-path="url(#clipPath1)" x2="82" y1="819"/>
      <line y2="910" fill="none" x1="81" clip-path="url(#clipPath1)" x2="81" y1="908"/>
      <line y2="909" fill="none" x1="80" clip-path="url(#clipPath1)" x2="82" y1="909"/>
      <line y2="1000" fill="none" x1="81" clip-path="url(#clipPath1)" x2="81" y1="998"/>
      <line y2="999" fill="none" x1="80" clip-path="url(#clipPath1)" x2="82" y1="999"/>
      <line y2="-170" fill="none" x1="171" clip-path="url(#clipPath1)" x2="171" y1="-172"/>
      <line y2="-171" fill="none" x1="170" clip-path="url(#clipPath1)" x2="172" y1="-171"/>
      <line y2="-80" fill="none" x1="171" clip-path="url(#clipPath1)" x2="171" y1="-82"/>
      <line y2="-81" fill="none" x1="170" clip-path="url(#clipPath1)" x2="172" y1="-81"/>
      <line y2="10" fill="none" x1="171" clip-path="url(#clipPath1)" x2="171" y1="8"/>
      <line y2="9" fill="none" x1="170" clip-path="url(#clipPath1)" x2="172" y1="9"/>
      <line y2="100" fill="none" x1="171" clip-path="url(#clipPath1)" x2="171" y1="98"/>
      <line y2="99" fill="none" x1="170" clip-path="url(#clipPath1)" x2="172" y1="99"/>
      <line y2="190" fill="none" x1="171" clip-path="url(#clipPath1)" x2="171" y1="188"/>
      <line y2="189" fill="none" x1="170" clip-path="url(#clipPath1)" x2="172" y1="189"/>
      <line y2="280" fill="none" x1="171" clip-path="url(#clipPath1)" x2="171" y1="278"/>
      <line y2="279" fill="none" x1="170" clip-path="url(#clipPath1)" x2="172" y1="279"/>
      <line y2="370" fill="none" x1="171" clip-path="url(#clipPath1)" x2="171" y1="368"/>
      <line y2="369" fill="none" x1="170" clip-path="url(#clipPath1)" x2="172" y1="369"/>
      <line y2="460" fill="none" x1="171" clip-path="url(#clipPath1)" x2="171" y1="458"/>
      <line y2="459" fill="none" x1="170" clip-path="url(#clipPath1)" x2="172" y1="459"/>
      <line y2="550" fill="none" x1="171" clip-path="url(#clipPath1)" x2="171" y1="548"/>
      <line y2="549" fill="none" x1="170" clip-path="url(#clipPath1)" x2="172" y1="549"/>
      <line y2="640" fill="none" x1="171" clip-path="url(#clipPath1)" x2="171" y1="638"/>
      <line y2="639" fill="none" x1="170" clip-path="url(#clipPath1)" x2="172" y1="639"/>
      <line y2="730" fill="none" x1="171" clip-path="url(#clipPath1)" x2="171" y1="728"/>
      <line y2="729" fill="none" x1="170" clip-path="url(#clipPath1)" x2="172" y1="729"/>
      <line y2="820" fill="none" x1="171" clip-path="url(#clipPath1)" x2="171" y1="818"/>
      <line y2="819" fill="none" x1="170" clip-path="url(#clipPath1)" x2="172" y1="819"/>
      <line y2="910" fill="none" x1="171" clip-path="url(#clipPath1)" x2="171" y1="908"/>
      <line y2="909" fill="none" x1="170" clip-path="url(#clipPath1)" x2="172" y1="909"/>
      <line y2="1000" fill="none" x1="171" clip-path="url(#clipPath1)" x2="171" y1="998"/>
      <line y2="999" fill="none" x1="170" clip-path="url(#clipPath1)" x2="172" y1="999"/>
      <line y2="-170" fill="none" x1="261" clip-path="url(#clipPath1)" x2="261" y1="-172"/>
      <line y2="-171" fill="none" x1="260" clip-path="url(#clipPath1)" x2="262" y1="-171"/>
      <line y2="-80" fill="none" x1="261" clip-path="url(#clipPath1)" x2="261" y1="-82"/>
      <line y2="-81" fill="none" x1="260" clip-path="url(#clipPath1)" x2="262" y1="-81"/>
      <line y2="10" fill="none" x1="261" clip-path="url(#clipPath1)" x2="261" y1="8"/>
      <line y2="9" fill="none" x1="260" clip-path="url(#clipPath1)" x2="262" y1="9"/>
      <line y2="100" fill="none" x1="261" clip-path="url(#clipPath1)" x2="261" y1="98"/>
      <line y2="99" fill="none" x1="260" clip-path="url(#clipPath1)" x2="262" y1="99"/>
      <line y2="190" fill="none" x1="261" clip-path="url(#clipPath1)" x2="261" y1="188"/>
      <line y2="189" fill="none" x1="260" clip-path="url(#clipPath1)" x2="262" y1="189"/>
      <line y2="280" fill="none" x1="261" clip-path="url(#clipPath1)" x2="261" y1="278"/>
      <line y2="279" fill="none" x1="260" clip-path="url(#clipPath1)" x2="262" y1="279"/>
      <line y2="370" fill="none" x1="261" clip-path="url(#clipPath1)" x2="261" y1="368"/>
      <line y2="369" fill="none" x1="260" clip-path="url(#clipPath1)" x2="262" y1="369"/>
      <line y2="460" fill="none" x1="261" clip-path="url(#clipPath1)" x2="261" y1="458"/>
      <line y2="459" fill="none" x1="260" clip-path="url(#clipPath1)" x2="262" y1="459"/>
      <line y2="550" fill="none" x1="261" clip-path="url(#clipPath1)" x2="261" y1="548"/>
      <line y2="549" fill="none" x1="260" clip-path="url(#clipPath1)" x2="262" y1="549"/>
      <line y2="640" fill="none" x1="261" clip-path="url(#clipPath1)" x2="261" y1="638"/>
      <line y2="639" fill="none" x1="260" clip-path="url(#clipPath1)" x2="262" y1="639"/>
      <line y2="730" fill="none" x1="261" clip-path="url(#clipPath1)" x2="261" y1="728"/>
      <line y2="729" fill="none" x1="260" clip-path="url(#clipPath1)" x2="262" y1="729"/>
      <line y2="820" fill="none" x1="261" clip-path="url(#clipPath1)" x2="261" y1="818"/>
      <line y2="819" fill="none" x1="260" clip-path="url(#clipPath1)" x2="262" y1="819"/>
      <line y2="910" fill="none" x1="261" clip-path="url(#clipPath1)" x2="261" y1="908"/>
      <line y2="909" fill="none" x1="260" clip-path="url(#clipPath1)" x2="262" y1="909"/>
      <line y2="1000" fill="none" x1="261" clip-path="url(#clipPath1)" x2="261" y1="998"/>
      <line y2="999" fill="none" x1="260" clip-path="url(#clipPath1)" x2="262" y1="999"/>
      <line y2="-170" fill="none" x1="351" clip-path="url(#clipPath1)" x2="351" y1="-172"/>
      <line y2="-171" fill="none" x1="350" clip-path="url(#clipPath1)" x2="352" y1="-171"/>
      <line y2="-80" fill="none" x1="351" clip-path="url(#clipPath1)" x2="351" y1="-82"/>
      <line y2="-81" fill="none" x1="350" clip-path="url(#clipPath1)" x2="352" y1="-81"/>
      <line y2="10" fill="none" x1="351" clip-path="url(#clipPath1)" x2="351" y1="8"/>
      <line y2="9" fill="none" x1="350" clip-path="url(#clipPath1)" x2="352" y1="9"/>
      <line y2="100" fill="none" x1="351" clip-path="url(#clipPath1)" x2="351" y1="98"/>
      <line y2="99" fill="none" x1="350" clip-path="url(#clipPath1)" x2="352" y1="99"/>
      <line y2="190" fill="none" x1="351" clip-path="url(#clipPath1)" x2="351" y1="188"/>
      <line y2="189" fill="none" x1="350" clip-path="url(#clipPath1)" x2="352" y1="189"/>
      <line y2="280" fill="none" x1="351" clip-path="url(#clipPath1)" x2="351" y1="278"/>
      <line y2="279" fill="none" x1="350" clip-path="url(#clipPath1)" x2="352" y1="279"/>
      <line y2="370" fill="none" x1="351" clip-path="url(#clipPath1)" x2="351" y1="368"/>
      <line y2="369" fill="none" x1="350" clip-path="url(#clipPath1)" x2="352" y1="369"/>
      <line y2="460" fill="none" x1="351" clip-path="url(#clipPath1)" x2="351" y1="458"/>
      <line y2="459" fill="none" x1="350" clip-path="url(#clipPath1)" x2="352" y1="459"/>
      <line y2="550" fill="none" x1="351" clip-path="url(#clipPath1)" x2="351" y1="548"/>
      <line y2="549" fill="none" x1="350" clip-path="url(#clipPath1)" x2="352" y1="549"/>
      <line y2="640" fill="none" x1="351" clip-path="url(#clipPath1)" x2="351" y1="638"/>
      <line y2="639" fill="none" x1="350" clip-path="url(#clipPath1)" x2="352" y1="639"/>
      <line y2="730" fill="none" x1="351" clip-path="url(#clipPath1)" x2="351" y1="728"/>
      <line y2="729" fill="none" x1="350" clip-path="url(#clipPath1)" x2="352" y1="729"/>
      <line y2="820" fill="none" x1="351" clip-path="url(#clipPath1)" x2="351" y1="818"/>
      <line y2="819" fill="none" x1="350" clip-path="url(#clipPath1)" x2="352" y1="819"/>
      <line y2="910" fill="none" x1="351" clip-path="url(#clipPath1)" x2="351" y1="908"/>
      <line y2="909" fill="none" x1="350" clip-path="url(#clipPath1)" x2="352" y1="909"/>
      <line y2="1000" fill="none" x1="351" clip-path="url(#clipPath1)" x2="351" y1="998"/>
      <line y2="999" fill="none" x1="350" clip-path="url(#clipPath1)" x2="352" y1="999"/>
      <line y2="-170" fill="none" x1="441" clip-path="url(#clipPath1)" x2="441" y1="-172"/>
      <line y2="-171" fill="none" x1="440" clip-path="url(#clipPath1)" x2="442" y1="-171"/>
      <line y2="-80" fill="none" x1="441" clip-path="url(#clipPath1)" x2="441" y1="-82"/>
      <line y2="-81" fill="none" x1="440" clip-path="url(#clipPath1)" x2="442" y1="-81"/>
      <line y2="10" fill="none" x1="441" clip-path="url(#clipPath1)" x2="441" y1="8"/>
      <line y2="9" fill="none" x1="440" clip-path="url(#clipPath1)" x2="442" y1="9"/>
      <line y2="100" fill="none" x1="441" clip-path="url(#clipPath1)" x2="441" y1="98"/>
      <line y2="99" fill="none" x1="440" clip-path="url(#clipPath1)" x2="442" y1="99"/>
      <line y2="190" fill="none" x1="441" clip-path="url(#clipPath1)" x2="441" y1="188"/>
      <line y2="189" fill="none" x1="440" clip-path="url(#clipPath1)" x2="442" y1="189"/>
      <line y2="280" fill="none" x1="441" clip-path="url(#clipPath1)" x2="441" y1="278"/>
      <line y2="279" fill="none" x1="440" clip-path="url(#clipPath1)" x2="442" y1="279"/>
      <line y2="370" fill="none" x1="441" clip-path="url(#clipPath1)" x2="441" y1="368"/>
      <line y2="369" fill="none" x1="440" clip-path="url(#clipPath1)" x2="442" y1="369"/>
      <line y2="460" fill="none" x1="441" clip-path="url(#clipPath1)" x2="441" y1="458"/>
      <line y2="459" fill="none" x1="440" clip-path="url(#clipPath1)" x2="442" y1="459"/>
      <line y2="550" fill="none" x1="441" clip-path="url(#clipPath1)" x2="441" y1="548"/>
      <line y2="549" fill="none" x1="440" clip-path="url(#clipPath1)" x2="442" y1="549"/>
      <line y2="640" fill="none" x1="441" clip-path="url(#clipPath1)" x2="441" y1="638"/>
      <line y2="639" fill="none" x1="440" clip-path="url(#clipPath1)" x2="442" y1="639"/>
      <line y2="730" fill="none" x1="441" clip-path="url(#clipPath1)" x2="441" y1="728"/>
      <line y2="729" fill="none" x1="440" clip-path="url(#clipPath1)" x2="442" y1="729"/>
      <line y2="820" fill="none" x1="441" clip-path="url(#clipPath1)" x2="441" y1="818"/>
      <line y2="819" fill="none" x1="440" clip-path="url(#clipPath1)" x2="442" y1="819"/>
      <line y2="910" fill="none" x1="441" clip-path="url(#clipPath1)" x2="441" y1="908"/>
      <line y2="909" fill="none" x1="440" clip-path="url(#clipPath1)" x2="442" y1="909"/>
      <line y2="1000" fill="none" x1="441" clip-path="url(#clipPath1)" x2="441" y1="998"/>
      <line y2="999" fill="none" x1="440" clip-path="url(#clipPath1)" x2="442" y1="999"/>
      <line y2="-170" fill="none" x1="531" clip-path="url(#clipPath1)" x2="531" y1="-172"/>
      <line y2="-171" fill="none" x1="530" clip-path="url(#clipPath1)" x2="532" y1="-171"/>
      <line y2="-80" fill="none" x1="531" clip-path="url(#clipPath1)" x2="531" y1="-82"/>
      <line y2="-81" fill="none" x1="530" clip-path="url(#clipPath1)" x2="532" y1="-81"/>
      <line y2="10" fill="none" x1="531" clip-path="url(#clipPath1)" x2="531" y1="8"/>
      <line y2="9" fill="none" x1="530" clip-path="url(#clipPath1)" x2="532" y1="9"/>
      <line y2="100" fill="none" x1="531" clip-path="url(#clipPath1)" x2="531" y1="98"/>
      <line y2="99" fill="none" x1="530" clip-path="url(#clipPath1)" x2="532" y1="99"/>
      <line y2="190" fill="none" x1="531" clip-path="url(#clipPath1)" x2="531" y1="188"/>
      <line y2="189" fill="none" x1="530" clip-path="url(#clipPath1)" x2="532" y1="189"/>
      <line y2="280" fill="none" x1="531" clip-path="url(#clipPath1)" x2="531" y1="278"/>
      <line y2="279" fill="none" x1="530" clip-path="url(#clipPath1)" x2="532" y1="279"/>
      <line y2="370" fill="none" x1="531" clip-path="url(#clipPath1)" x2="531" y1="368"/>
      <line y2="369" fill="none" x1="530" clip-path="url(#clipPath1)" x2="532" y1="369"/>
      <line y2="460" fill="none" x1="531" clip-path="url(#clipPath1)" x2="531" y1="458"/>
      <line y2="459" fill="none" x1="530" clip-path="url(#clipPath1)" x2="532" y1="459"/>
      <line y2="550" fill="none" x1="531" clip-path="url(#clipPath1)" x2="531" y1="548"/>
      <line y2="549" fill="none" x1="530" clip-path="url(#clipPath1)" x2="532" y1="549"/>
      <line y2="640" fill="none" x1="531" clip-path="url(#clipPath1)" x2="531" y1="638"/>
      <line y2="639" fill="none" x1="530" clip-path="url(#clipPath1)" x2="532" y1="639"/>
      <line y2="730" fill="none" x1="531" clip-path="url(#clipPath1)" x2="531" y1="728"/>
      <line y2="729" fill="none" x1="530" clip-path="url(#clipPath1)" x2="532" y1="729"/>
      <line y2="820" fill="none" x1="531" clip-path="url(#clipPath1)" x2="531" y1="818"/>
      <line y2="819" fill="none" x1="530" clip-path="url(#clipPath1)" x2="532" y1="819"/>
      <line y2="910" fill="none" x1="531" clip-path="url(#clipPath1)" x2="531" y1="908"/>
      <line y2="909" fill="none" x1="530" clip-path="url(#clipPath1)" x2="532" y1="909"/>
      <line y2="1000" fill="none" x1="531" clip-path="url(#clipPath1)" x2="531" y1="998"/>
      <line y2="999" fill="none" x1="530" clip-path="url(#clipPath1)" x2="532" y1="999"/>
      <line y2="-170" fill="none" x1="621" clip-path="url(#clipPath1)" x2="621" y1="-172"/>
      <line y2="-171" fill="none" x1="620" clip-path="url(#clipPath1)" x2="622" y1="-171"/>
      <line y2="-80" fill="none" x1="621" clip-path="url(#clipPath1)" x2="621" y1="-82"/>
      <line y2="-81" fill="none" x1="620" clip-path="url(#clipPath1)" x2="622" y1="-81"/>
      <line y2="10" fill="none" x1="621" clip-path="url(#clipPath1)" x2="621" y1="8"/>
      <line y2="9" fill="none" x1="620" clip-path="url(#clipPath1)" x2="622" y1="9"/>
      <line y2="100" fill="none" x1="621" clip-path="url(#clipPath1)" x2="621" y1="98"/>
      <line y2="99" fill="none" x1="620" clip-path="url(#clipPath1)" x2="622" y1="99"/>
      <line y2="190" fill="none" x1="621" clip-path="url(#clipPath1)" x2="621" y1="188"/>
      <line y2="189" fill="none" x1="620" clip-path="url(#clipPath1)" x2="622" y1="189"/>
      <line y2="280" fill="none" x1="621" clip-path="url(#clipPath1)" x2="621" y1="278"/>
      <line y2="279" fill="none" x1="620" clip-path="url(#clipPath1)" x2="622" y1="279"/>
      <line y2="370" fill="none" x1="621" clip-path="url(#clipPath1)" x2="621" y1="368"/>
      <line y2="369" fill="none" x1="620" clip-path="url(#clipPath1)" x2="622" y1="369"/>
      <line y2="460" fill="none" x1="621" clip-path="url(#clipPath1)" x2="621" y1="458"/>
      <line y2="459" fill="none" x1="620" clip-path="url(#clipPath1)" x2="622" y1="459"/>
      <line y2="550" fill="none" x1="621" clip-path="url(#clipPath1)" x2="621" y1="548"/>
      <line y2="549" fill="none" x1="620" clip-path="url(#clipPath1)" x2="622" y1="549"/>
      <line y2="640" fill="none" x1="621" clip-path="url(#clipPath1)" x2="621" y1="638"/>
      <line y2="639" fill="none" x1="620" clip-path="url(#clipPath1)" x2="622" y1="639"/>
      <line y2="730" fill="none" x1="621" clip-path="url(#clipPath1)" x2="621" y1="728"/>
      <line y2="729" fill="none" x1="620" clip-path="url(#clipPath1)" x2="622" y1="729"/>
      <line y2="820" fill="none" x1="621" clip-path="url(#clipPath1)" x2="621" y1="818"/>
      <line y2="819" fill="none" x1="620" clip-path="url(#clipPath1)" x2="622" y1="819"/>
      <line y2="910" fill="none" x1="621" clip-path="url(#clipPath1)" x2="621" y1="908"/>
      <line y2="909" fill="none" x1="620" clip-path="url(#clipPath1)" x2="622" y1="909"/>
      <line y2="1000" fill="none" x1="621" clip-path="url(#clipPath1)" x2="621" y1="998"/>
      <line y2="999" fill="none" x1="620" clip-path="url(#clipPath1)" x2="622" y1="999"/>
      <line y2="-170" fill="none" x1="711" clip-path="url(#clipPath1)" x2="711" y1="-172"/>
      <line y2="-171" fill="none" x1="710" clip-path="url(#clipPath1)" x2="712" y1="-171"/>
      <line y2="-80" fill="none" x1="711" clip-path="url(#clipPath1)" x2="711" y1="-82"/>
      <line y2="-81" fill="none" x1="710" clip-path="url(#clipPath1)" x2="712" y1="-81"/>
      <line y2="10" fill="none" x1="711" clip-path="url(#clipPath1)" x2="711" y1="8"/>
      <line y2="9" fill="none" x1="710" clip-path="url(#clipPath1)" x2="712" y1="9"/>
      <line y2="100" fill="none" x1="711" clip-path="url(#clipPath1)" x2="711" y1="98"/>
      <line y2="99" fill="none" x1="710" clip-path="url(#clipPath1)" x2="712" y1="99"/>
      <line y2="190" fill="none" x1="711" clip-path="url(#clipPath1)" x2="711" y1="188"/>
      <line y2="189" fill="none" x1="710" clip-path="url(#clipPath1)" x2="712" y1="189"/>
      <line y2="280" fill="none" x1="711" clip-path="url(#clipPath1)" x2="711" y1="278"/>
      <line y2="279" fill="none" x1="710" clip-path="url(#clipPath1)" x2="712" y1="279"/>
      <line y2="370" fill="none" x1="711" clip-path="url(#clipPath1)" x2="711" y1="368"/>
      <line y2="369" fill="none" x1="710" clip-path="url(#clipPath1)" x2="712" y1="369"/>
      <line y2="460" fill="none" x1="711" clip-path="url(#clipPath1)" x2="711" y1="458"/>
      <line y2="459" fill="none" x1="710" clip-path="url(#clipPath1)" x2="712" y1="459"/>
      <line y2="550" fill="none" x1="711" clip-path="url(#clipPath1)" x2="711" y1="548"/>
      <line y2="549" fill="none" x1="710" clip-path="url(#clipPath1)" x2="712" y1="549"/>
      <line y2="640" fill="none" x1="711" clip-path="url(#clipPath1)" x2="711" y1="638"/>
      <line y2="639" fill="none" x1="710" clip-path="url(#clipPath1)" x2="712" y1="639"/>
      <line y2="730" fill="none" x1="711" clip-path="url(#clipPath1)" x2="711" y1="728"/>
      <line y2="729" fill="none" x1="710" clip-path="url(#clipPath1)" x2="712" y1="729"/>
      <line y2="820" fill="none" x1="711" clip-path="url(#clipPath1)" x2="711" y1="818"/>
      <line y2="819" fill="none" x1="710" clip-path="url(#clipPath1)" x2="712" y1="819"/>
      <line y2="910" fill="none" x1="711" clip-path="url(#clipPath1)" x2="711" y1="908"/>
      <line y2="909" fill="none" x1="710" clip-path="url(#clipPath1)" x2="712" y1="909"/>
      <line y2="1000" fill="none" x1="711" clip-path="url(#clipPath1)" x2="711" y1="998"/>
      <line y2="999" fill="none" x1="710" clip-path="url(#clipPath1)" x2="712" y1="999"/>
      <line y2="-170" fill="none" x1="801" clip-path="url(#clipPath1)" x2="801" y1="-172"/>
      <line y2="-171" fill="none" x1="800" clip-path="url(#clipPath1)" x2="802" y1="-171"/>
      <line y2="-80" fill="none" x1="801" clip-path="url(#clipPath1)" x2="801" y1="-82"/>
      <line y2="-81" fill="none" x1="800" clip-path="url(#clipPath1)" x2="802" y1="-81"/>
      <line y2="10" fill="none" x1="801" clip-path="url(#clipPath1)" x2="801" y1="8"/>
      <line y2="9" fill="none" x1="800" clip-path="url(#clipPath1)" x2="802" y1="9"/>
      <line y2="100" fill="none" x1="801" clip-path="url(#clipPath1)" x2="801" y1="98"/>
      <line y2="99" fill="none" x1="800" clip-path="url(#clipPath1)" x2="802" y1="99"/>
      <line y2="190" fill="none" x1="801" clip-path="url(#clipPath1)" x2="801" y1="188"/>
      <line y2="189" fill="none" x1="800" clip-path="url(#clipPath1)" x2="802" y1="189"/>
      <line y2="280" fill="none" x1="801" clip-path="url(#clipPath1)" x2="801" y1="278"/>
      <line y2="279" fill="none" x1="800" clip-path="url(#clipPath1)" x2="802" y1="279"/>
      <line y2="370" fill="none" x1="801" clip-path="url(#clipPath1)" x2="801" y1="368"/>
      <line y2="369" fill="none" x1="800" clip-path="url(#clipPath1)" x2="802" y1="369"/>
      <line y2="460" fill="none" x1="801" clip-path="url(#clipPath1)" x2="801" y1="458"/>
      <line y2="459" fill="none" x1="800" clip-path="url(#clipPath1)" x2="802" y1="459"/>
      <line y2="550" fill="none" x1="801" clip-path="url(#clipPath1)" x2="801" y1="548"/>
      <line y2="549" fill="none" x1="800" clip-path="url(#clipPath1)" x2="802" y1="549"/>
      <line y2="640" fill="none" x1="801" clip-path="url(#clipPath1)" x2="801" y1="638"/>
      <line y2="639" fill="none" x1="800" clip-path="url(#clipPath1)" x2="802" y1="639"/>
      <line y2="730" fill="none" x1="801" clip-path="url(#clipPath1)" x2="801" y1="728"/>
      <line y2="729" fill="none" x1="800" clip-path="url(#clipPath1)" x2="802" y1="729"/>
      <line y2="820" fill="none" x1="801" clip-path="url(#clipPath1)" x2="801" y1="818"/>
      <line y2="819" fill="none" x1="800" clip-path="url(#clipPath1)" x2="802" y1="819"/>
      <line y2="910" fill="none" x1="801" clip-path="url(#clipPath1)" x2="801" y1="908"/>
      <line y2="909" fill="none" x1="800" clip-path="url(#clipPath1)" x2="802" y1="909"/>
      <line y2="1000" fill="none" x1="801" clip-path="url(#clipPath1)" x2="801" y1="998"/>
      <line y2="999" fill="none" x1="800" clip-path="url(#clipPath1)" x2="802" y1="999"/>
      <line y2="-170" fill="none" x1="891" clip-path="url(#clipPath1)" x2="891" y1="-172"/>
      <line y2="-171" fill="none" x1="890" clip-path="url(#clipPath1)" x2="892" y1="-171"/>
      <line y2="-80" fill="none" x1="891" clip-path="url(#clipPath1)" x2="891" y1="-82"/>
      <line y2="-81" fill="none" x1="890" clip-path="url(#clipPath1)" x2="892" y1="-81"/>
      <line y2="10" fill="none" x1="891" clip-path="url(#clipPath1)" x2="891" y1="8"/>
      <line y2="9" fill="none" x1="890" clip-path="url(#clipPath1)" x2="892" y1="9"/>
      <line y2="100" fill="none" x1="891" clip-path="url(#clipPath1)" x2="891" y1="98"/>
      <line y2="99" fill="none" x1="890" clip-path="url(#clipPath1)" x2="892" y1="99"/>
      <line y2="190" fill="none" x1="891" clip-path="url(#clipPath1)" x2="891" y1="188"/>
      <line y2="189" fill="none" x1="890" clip-path="url(#clipPath1)" x2="892" y1="189"/>
      <line y2="280" fill="none" x1="891" clip-path="url(#clipPath1)" x2="891" y1="278"/>
      <line y2="279" fill="none" x1="890" clip-path="url(#clipPath1)" x2="892" y1="279"/>
      <line y2="370" fill="none" x1="891" clip-path="url(#clipPath1)" x2="891" y1="368"/>
      <line y2="369" fill="none" x1="890" clip-path="url(#clipPath1)" x2="892" y1="369"/>
      <line y2="460" fill="none" x1="891" clip-path="url(#clipPath1)" x2="891" y1="458"/>
      <line y2="459" fill="none" x1="890" clip-path="url(#clipPath1)" x2="892" y1="459"/>
      <line y2="550" fill="none" x1="891" clip-path="url(#clipPath1)" x2="891" y1="548"/>
      <line y2="549" fill="none" x1="890" clip-path="url(#clipPath1)" x2="892" y1="549"/>
      <line y2="640" fill="none" x1="891" clip-path="url(#clipPath1)" x2="891" y1="638"/>
      <line y2="639" fill="none" x1="890" clip-path="url(#clipPath1)" x2="892" y1="639"/>
      <line y2="730" fill="none" x1="891" clip-path="url(#clipPath1)" x2="891" y1="728"/>
      <line y2="729" fill="none" x1="890" clip-path="url(#clipPath1)" x2="892" y1="729"/>
      <line y2="820" fill="none" x1="891" clip-path="url(#clipPath1)" x2="891" y1="818"/>
      <line y2="819" fill="none" x1="890" clip-path="url(#clipPath1)" x2="892" y1="819"/>
      <line y2="910" fill="none" x1="891" clip-path="url(#clipPath1)" x2="891" y1="908"/>
      <line y2="909" fill="none" x1="890" clip-path="url(#clipPath1)" x2="892" y1="909"/>
      <line y2="1000" fill="none" x1="891" clip-path="url(#clipPath1)" x2="891" y1="998"/>
      <line y2="999" fill="none" x1="890" clip-path="url(#clipPath1)" x2="892" y1="999"/>
      <line y2="-170" fill="none" x1="981" clip-path="url(#clipPath1)" x2="981" y1="-172"/>
      <line y2="-171" fill="none" x1="980" clip-path="url(#clipPath1)" x2="982" y1="-171"/>
      <line y2="-80" fill="none" x1="981" clip-path="url(#clipPath1)" x2="981" y1="-82"/>
      <line y2="-81" fill="none" x1="980" clip-path="url(#clipPath1)" x2="982" y1="-81"/>
      <line y2="10" fill="none" x1="981" clip-path="url(#clipPath1)" x2="981" y1="8"/>
      <line y2="9" fill="none" x1="980" clip-path="url(#clipPath1)" x2="982" y1="9"/>
      <line y2="100" fill="none" x1="981" clip-path="url(#clipPath1)" x2="981" y1="98"/>
      <line y2="99" fill="none" x1="980" clip-path="url(#clipPath1)" x2="982" y1="99"/>
      <line y2="190" fill="none" x1="981" clip-path="url(#clipPath1)" x2="981" y1="188"/>
      <line y2="189" fill="none" x1="980" clip-path="url(#clipPath1)" x2="982" y1="189"/>
      <line y2="280" fill="none" x1="981" clip-path="url(#clipPath1)" x2="981" y1="278"/>
      <line y2="279" fill="none" x1="980" clip-path="url(#clipPath1)" x2="982" y1="279"/>
      <line y2="370" fill="none" x1="981" clip-path="url(#clipPath1)" x2="981" y1="368"/>
      <line y2="369" fill="none" x1="980" clip-path="url(#clipPath1)" x2="982" y1="369"/>
      <line y2="460" fill="none" x1="981" clip-path="url(#clipPath1)" x2="981" y1="458"/>
      <line y2="459" fill="none" x1="980" clip-path="url(#clipPath1)" x2="982" y1="459"/>
      <line y2="550" fill="none" x1="981" clip-path="url(#clipPath1)" x2="981" y1="548"/>
      <line y2="549" fill="none" x1="980" clip-path="url(#clipPath1)" x2="982" y1="549"/>
      <line y2="640" fill="none" x1="981" clip-path="url(#clipPath1)" x2="981" y1="638"/>
      <line y2="639" fill="none" x1="980" clip-path="url(#clipPath1)" x2="982" y1="639"/>
      <line y2="730" fill="none" x1="981" clip-path="url(#clipPath1)" x2="981" y1="728"/>
      <line y2="729" fill="none" x1="980" clip-path="url(#clipPath1)" x2="982" y1="729"/>
      <line y2="820" fill="none" x1="981" clip-path="url(#clipPath1)" x2="981" y1="818"/>
      <line y2="819" fill="none" x1="980" clip-path="url(#clipPath1)" x2="982" y1="819"/>
      <line y2="910" fill="none" x1="981" clip-path="url(#clipPath1)" x2="981" y1="908"/>
      <line y2="909" fill="none" x1="980" clip-path="url(#clipPath1)" x2="982" y1="909"/>
      <line y2="1000" fill="none" x1="981" clip-path="url(#clipPath1)" x2="981" y1="998"/>
      <line y2="999" fill="none" x1="980" clip-path="url(#clipPath1)" x2="982" y1="999"/>
    </g>
    <g fill="rgb(255,204,0)" text-rendering="geometricPrecision" shape-rendering="geometricPrecision" transform="matrix(3,0,0,3,-1629,-621)" stroke="rgb(255,204,0)">
      <rect x="628" width="150" height="136" y="292" clip-path="url(#clipPath2)" stroke="none"/>
      <rect x="627" y="291" clip-path="url(#clipPath2)" fill="yellow" width="1" height="138" stroke="none"/>
      <rect x="628" y="291" clip-path="url(#clipPath2)" fill="yellow" width="150" height="1" stroke="none"/>
      <rect x="628" y="428" clip-path="url(#clipPath2)" fill="rgb(178,142,0)" width="151" height="1" stroke="none"/>
      <rect x="778" y="291" clip-path="url(#clipPath2)" fill="rgb(178,142,0)" width="1" height="137" stroke="none"/>
    </g>
    <g font-size="13px" stroke-linecap="butt" transform="matrix(3,0,0,3,-1629,-621)" text-rendering="geometricPrecision" font-family="sans-serif" shape-rendering="geometricPrecision" font-weight="bold" stroke-miterlimit="1.45">
      <text x="680.9641" xml:space="preserve" y="309.0698" clip-path="url(#clipPath3)" stroke="none">Person</text>
    </g>
    <g text-rendering="geometricPrecision" shape-rendering="geometricPrecision" transform="matrix(3,0,0,3,-1629,-621)">
      <line y2="316" fill="none" x1="628" clip-path="url(#clipPath3)" x2="778" y1="316"/>
      <text stroke-linecap="butt" x="632" y="333.9907" clip-path="url(#clipPath3)" font-family="sans-serif" stroke="none" stroke-miterlimit="1.45" xml:space="preserve">- m_name : string</text>
      <text stroke-linecap="butt" x="632" y="348.6919" clip-path="url(#clipPath3)" font-family="sans-serif" stroke="none" stroke-miterlimit="1.45" xml:space="preserve">- m_age : int</text>
      <line y2="356" fill="none" x1="628" clip-path="url(#clipPath3)" x2="778" y1="356"/>
      <text stroke-linecap="butt" x="632" y="373.3931" clip-path="url(#clipPath3)" font-family="sans-serif" stroke="none" stroke-miterlimit="1.45" xml:space="preserve">+ getAge() const : int</text>
      <text stroke-linecap="butt" x="632" y="388.0942" clip-path="url(#clipPath3)" font-family="sans-serif" stroke="none" stroke-miterlimit="1.45" xml:space="preserve">+ getName() const : int</text>
      <text stroke-linecap="butt" x="632" y="402.7954" clip-path="url(#clipPath3)" font-family="sans-serif" stroke="none" stroke-miterlimit="1.45" xml:space="preserve">+ setAge(int) : void</text>
      <text stroke-linecap="butt" x="632" y="417.4966" clip-path="url(#clipPath3)" font-family="sans-serif" stroke="none" stroke-miterlimit="1.45" xml:space="preserve">+ setName(string) : void</text>
    </g>
  </g>
</svg>
